<svg viewBox="0 0 200 200" xmlns="http://www.w3.org/2000/svg">
  <path fill="#DAF7A6" d="M45.7,-78.9C58.8,-71.7,68.6,-58.5,76.6,-44.3C84.6,-30.2,90.8,-15.1,90.4,-0.2C90.1,14.7,83.2,29.4,74.9,43C66.6,56.5,56.8,68.9,44,76.2C31.3,83.5,15.7,85.7,-0.1,85.8C-15.9,86,-31.7,84.2,-45.4,77.4C-59,70.7,-70.5,59,-77.4,45.3C-84.3,31.5,-86.7,15.8,-86.4,0.2C-86,-15.3,-82.9,-30.7,-75.7,-44C-68.6,-57.4,-57.4,-68.7,-44.1,-75.8C-30.8,-82.9,-15.4,-85.7,0.5,-86.6C16.3,-87.4,32.7,-86.1,45.7,-78.9Z" transform="translate(100 100)" />
</svg>